<?xml version="1.0" encoding="UTF-8" standalone="no"?><!DOCTYPE svg PUBLIC "-//W3C//DTD SVG 1.1//EN" "http://www.w3.org/Graphics/SVG/1.1/DTD/svg11.dtd"><svg width="100%" height="100%" viewBox="0 0 2400 2400" version="1.1" xmlns="http://www.w3.org/2000/svg" xmlns:xlink="http://www.w3.org/1999/xlink" xml:space="preserve" xmlns:serif="http://www.serif.com/" style="fill-rule:evenodd;clip-rule:evenodd;stroke-linejoin:round;stroke-miterlimit:2;"><g><path d="M2348.19,1537.7c15.79,-15.037 25.762,-36.11 25.762,-59.629c-0,-22.636 -10.772,-42.981 -25.523,-57.878l-664.58,-664.578l-200.59,200.588l523.235,523.235l-741.311,-0c-36.239,-1.085 -64.958,-13.244 -89.257,-36.793l-332.631,-332.631c-34.492,-32.617 -81.742,-53.254 -132.97,-53.254c-0.181,-0 -0.35,0.025 -0.506,0.025l0,-0.025l-405.954,-0l-0,-138.804l420.438,-0l-0,0.028c83.302,0.04 157.626,34.134 212.106,88.848l248.112,248.109l200.59,-200.59l-252.934,-252.931c-105.723,-104.115 -248.503,-167.142 -408.591,-167.142c-0.169,-0 -0.348,0.01 -0.519,0.01l0,-0.01l-702.89,-0l-0,706.157l594.907,0l-0,0.045c38.692,0.277 73.625,16.191 98.847,41.748l325.771,325.781c33.135,32.541 77.906,53.055 127.549,54.903l899.914,-0c37.884,-0.499 72.1,-16.009 97.071,-40.908l184.093,-184.075l-0.139,-0.229Z" style="fill-rule:nonzero;"/></g></svg>