<?xml version="1.0" encoding="UTF-8" standalone="no"?>
<!DOCTYPE svg PUBLIC "-//W3C//DTD SVG 1.1//EN" "http://www.w3.org/Graphics/SVG/1.1/DTD/svg11.dtd">
<svg width="100%" height="100%" viewBox="0 0 2400 2400" version="1.1" xmlns="http://www.w3.org/2000/svg" xmlns:xlink="http://www.w3.org/1999/xlink" xml:space="preserve" xmlns:serif="http://www.serif.com/" style="fill-rule:evenodd;clip-rule:evenodd;stroke-linejoin:round;stroke-miterlimit:2;">
    <g transform="matrix(2.56618,0,0,2.56618,0,623.187)">
        <path d="M925.008,359.515C931.282,353.54 935.244,345.167 935.244,335.822C935.244,326.828 930.964,318.744 925.103,312.825L661.04,48.763L581.338,128.464L789.239,336.365L494.688,336.365C480.289,335.934 468.878,331.103 459.223,321.746L327.056,189.579C313.351,176.619 294.577,168.419 274.222,168.419C274.15,168.419 274.083,168.429 274.021,168.429L274.021,168.419L112.72,168.419L112.72,113.267L279.776,113.267L279.776,113.278C312.875,113.294 342.407,126.841 364.054,148.581L462.638,247.164L542.34,167.462L441.84,66.963C399.832,25.594 343.1,0.551 279.491,0.551C279.424,0.551 279.353,0.555 279.285,0.555L279.285,0.551L0,0.551L0,281.134L236.379,281.134L236.379,281.152C251.753,281.262 265.633,287.585 275.655,297.74L405.096,427.185C418.262,440.115 436.051,448.266 455.776,449L813.346,449C828.399,448.802 841.994,442.639 851.916,432.746L925.063,359.606L925.008,359.515Z" style="fill-rule:nonzero;"/>
    </g>
</svg>
