<?xml version="1.0" encoding="UTF-8" standalone="no"?>
<!DOCTYPE svg PUBLIC "-//W3C//DTD SVG 1.1//EN" "http://www.w3.org/Graphics/SVG/1.1/DTD/svg11.dtd">
<svg width="100%" height="100%" viewBox="0 0 2400 2400" version="1.1" xmlns="http://www.w3.org/2000/svg" xmlns:xlink="http://www.w3.org/1999/xlink" xml:space="preserve" xmlns:serif="http://www.serif.com/" style="fill-rule:evenodd;clip-rule:evenodd;stroke-linejoin:round;stroke-miterlimit:2;">
    <g transform="matrix(4.39703,0,0,4.39703,1200,1200)">
        <g id="web.svg" transform="matrix(0.227426,0,0,0.227426,0,0)">
            <g transform="matrix(1,0,0,1,-1200,-1200)">
                <g transform="matrix(4.48365,0,0,4.48365,52.1856,52.1856)">
                    <g id="earth.svg">
                        <path d="M256,0C114.615,0 0,114.615 0,256C0,397.385 114.615,512 256,512C397.385,512 512,397.385 512,256C512,114.615 397.385,0 256,0ZM256,480.001C224.521,480.001 194.564,473.495 167.385,461.775L283.959,330.63C286.562,327.701 288,323.919 288,320L288,272C288,263.163 280.837,256 272,256C215.505,256 155.898,197.269 155.313,196.687C152.313,193.686 148.243,192 144,192L80,192C71.164,192 64,199.164 64,208L64,304C64,310.061 67.424,315.601 72.845,318.311L128,345.889L128,439.832C69.974,399.354 32,332.116 32,256C32,221.643 39.745,189.097 53.569,160L112,160C116.244,160 120.313,158.314 123.314,155.314L187.314,91.314C190.314,88.313 192,84.244 192,80L192,41.294C212.281,35.257 233.759,32 256,32C291.203,32 324.502,40.13 354.141,54.6C352.069,56.351 350.053,58.182 348.118,60.118C329.985,78.25 320,102.357 320,128C320,153.643 329.985,177.75 348.118,195.882C366.335,214.098 390.727,224.014 415.935,224.012C417.518,224.012 419.106,223.972 420.694,223.894C427.601,249.795 440.07,317.222 416.492,410.061C416.27,410.933 416.144,411.805 416.071,412.673C375.409,454.213 318.721,480.001 256,480.001Z" style="fill-rule:nonzero;"/>
                    </g>
                </g>
            </g>
            <g>
            </g>
        </g>
    </g>
</svg>
